<svg id="Layer_1" enable-background="new 0 0 512.005 512.005" height="512" viewBox="0 0 512.005 512.005" width="512" xmlns="http://www.w3.org/2000/svg"><g><path d="m10.144 178.43c26.273 0 47.571-21.298 47.571-47.571 0-26.273-21.298-47.571-47.571-47.571h439.29c26.273 0 47.571 21.298 47.571 47.571 0 26.273-21.298 47.571-47.571 47.571z" fill="#eceae7"/><path d="m57.715 130.859c0 26.273-21.298 47.571-47.571 47.571h439.29c26.272 0 47.571-21.298 47.571-47.571z" fill="#e7dfdd"/><path d="m0 163.43v30h449.434c34.502 0 62.571-28.069 62.571-62.571s-28.069-62.571-62.571-62.571h-449.434v30h449.434c17.96 0 32.571 14.611 32.571 32.571s-14.611 32.571-32.571 32.571z" fill="#ff4d05"/><path d="m449.434 163.43h-449.434v30h449.434c34.502 0 62.571-28.069 62.571-62.571h-30c0 17.959-14.611 32.571-32.571 32.571z" fill="#ff3838"/><path d="m501.861 303.577c-26.273 0-47.571-21.298-47.571-47.571 0-26.273 21.298-47.571 47.571-47.571h-439.29c-26.273 0-47.571 21.298-47.571 47.571 0 26.273 21.298 47.571 47.571 47.571z" fill="#eceae7"/><path d="m454.29 256.006h-439.29c0 26.273 21.298 47.571 47.571 47.571h439.29c-26.273 0-47.571-21.298-47.571-47.571z" fill="#e7dfdd"/><path d="m512.005 288.577v30h-449.434c-34.502 0-62.571-28.07-62.571-62.571s28.069-62.571 62.571-62.571h449.434v30h-449.434c-17.96 0-32.571 14.611-32.571 32.571s14.611 32.571 32.571 32.571z" fill="#ffd400"/><path d="m62.571 318.577h449.434v-30h-449.434c-17.96 0-32.571-14.611-32.571-32.571h-30c0 34.501 28.069 62.571 62.571 62.571z" fill="#fdbf00"/><path d="m10.144 428.717c26.273 0 47.571-21.298 47.571-47.571 0-26.273-21.298-47.571-47.571-47.571h439.29c26.273 0 47.571 21.298 47.571 47.571 0 26.273-21.298 47.571-47.571 47.571z" fill="#eceae7"/><path d="m57.715 381.146c0 26.273-21.298 47.571-47.571 47.571h439.29c26.272 0 47.571-21.298 47.571-47.571z" fill="#e7dfdd"/><path d="m0 413.717v30h449.434c34.502 0 62.571-28.069 62.571-62.571s-28.069-62.571-62.571-62.571h-449.434v30h449.434c17.96 0 32.571 14.611 32.571 32.571s-14.611 32.571-32.571 32.571z" fill="#d0004f"/><path d="m449.434 413.717h-449.434v30h449.434c34.502 0 62.571-28.069 62.571-62.571h-30c0 17.96-14.611 32.571-32.571 32.571z" fill="#b10f61"/></g></svg>